<!-- assets/icons/beard.svg -->
<svg viewBox="0 0 100 100" xmlns="http://www.w3.org/2000/svg" fill="none" stroke="#8B5E3C" stroke-width="2.5" stroke-linecap="round" stroke-linejoin="round">
  <!-- Contorno do Rosto -->
  <ellipse cx="50" cy="35" rx="28" ry="25" fill="none" stroke="#8B5E3C" stroke-width="2"/>
  
  <!-- Linha da Mandíbula -->
  <path d="M 22 45 Q 22 55 28 65 Q 35 75 50 78 Q 65 75 72 65 Q 78 55 78 45" fill="none" stroke="#8B5E3C" stroke-width="2.5"/>
  
  <!-- Barba - Formato -->
  <path d="M 28 65 Q 30 72 35 78 Q 40 84 50 86 Q 60 84 65 78 Q 70 72 72 65" fill="#5C3B1D" opacity="0.2"/>
  
  <!-- Textura da Barba - Linhas -->
  <path d="M 35 67 Q 38 72 40 76" stroke="#8B5E3C" stroke-width="1.5" opacity="0.7"/>
  <path d="M 42 68 Q 45 74 48 79" stroke="#8B5E3C" stroke-width="1.5" opacity="0.7"/>
  <path d="M 50 68 Q 50 75 50 82" stroke="#8B5E3C" stroke-width="2" opacity="0.8"/>
  <path d="M 58 68 Q 55 74 52 79" stroke="#8B5E3C" stroke-width="1.5" opacity="0.7"/>
  <path d="M 65 67 Q 62 72 60 76" stroke="#8B5E3C" stroke-width="1.5" opacity="0.7"/>
  
  <!-- Bigode -->
  <path d="M 38 48 Q 42 52 50 52 Q 58 52 62 48" fill="none" stroke="#8B5E3C" stroke-width="2.5"/>
  <path d="M 38 48 Q 35 50 32 51" stroke="#8B5E3C" stroke-width="2"/>
  <path d="M 62 48 Q 65 50 68 51" stroke="#8B5E3C" stroke-width="2"/>
  
  <!-- Detalhes do Bigode -->
  <path d="M 40 50 Q 44 51 48 51" stroke="#8B5E3C" stroke-width="1.2" opacity="0.6"/>
  <path d="M 60 50 Q 56 51 52 51" stroke="#8B5E3C" stroke-width="1.2" opacity="0.6"/>
  
  <!-- Cavanhaque Central -->
  <ellipse cx="50" cy="56" rx="3" ry="5" fill="#5C3B1D" opacity="0.3"/>
  
  <!-- Linhas de Design (Contorno) -->
  <path d="M 30 63 L 28 65" stroke="#B89253" stroke-width="2" opacity="0.8"/>
  <path d="M 70 63 L 72 65" stroke="#B89253" stroke-width="2" opacity="0.8"/>
  
  <!-- Orelhas (simplificadas) -->
  <path d="M 22 35 Q 18 35 16 38 Q 18 41 22 41" fill="none" stroke="#8B5E3C" stroke-width="1.5" opacity="0.5"/>
  <path d="M 78 35 Q 82 35 84 38 Q 82 41 78 41" fill="none" stroke="#8B5E3C" stroke-width="1.5" opacity="0.5"/>
  
  <!-- Destaque Dourado -->
  <path d="M 46 70 Q 48 75 50 78" stroke="#B89253" stroke-width="1.8" opacity="0.6"/>
  <path d="M 54 70 Q 52 75 50 78" stroke="#B89253" stroke-width="1.8" opacity="0.6"/>
</svg>