<!-- assets/icons/face-proportions.svg -->
<svg viewBox="0 0 100 100" xmlns="http://www.w3.org/2000/svg" fill="none" stroke="#8B5E3C" stroke-width="2" stroke-linecap="round" stroke-linejoin="round">
  <!-- Formato do Rosto -->
  <path d="M 50 15 Q 35 15 28 25 Q 22 35 22 50 Q 22 65 28 73 Q 35 82 50 85 Q 65 82 72 73 Q 78 65 78 50 Q 78 35 72 25 Q 65 15 50 15 Z" fill="none" stroke="#8B5E3C" stroke-width="2.5"/>
  
  <!-- Linhas Horizontais de Proporção -->
  <!-- Linha da Testa -->
  <line x1="15" y1="28" x2="85" y2="28" stroke="#B89253" stroke-width="1.5" stroke-dasharray="3,2" opacity="0.8"/>
  <text x="12" y="27" font-size="6" fill="#B89253" font-family="Arial">A</text>
  
  <!-- Linha dos Olhos -->
  <line x1="15" y1="42" x2="85" y2="42" stroke="#B89253" stroke-width="1.5" stroke-dasharray="3,2" opacity="0.8"/>
  <text x="12" y="41" font-size="6" fill="#B89253" font-family="Arial">B</text>
  
  <!-- Linha do Nariz -->
  <line x1="15" y1="56" x2="85" y2="56" stroke="#B89253" stroke-width="1.5" stroke-dasharray="3,2" opacity="0.8"/>
  <text x="12" y="55" font-size="6" fill="#B89253" font-family="Arial">C</text>
  
  <!-- Linha da Boca -->
  <line x1="15" y1="65" x2="85" y2="65" stroke="#B89253" stroke-width="1.5" stroke-dasharray="3,2" opacity="0.8"/>
  <text x="12" y="64" font-size="6" fill="#B89253" font-family="Arial">D</text>
  
  <!-- Linha do Queixo -->
  <line x1="15" y1="78" x2="85" y2="78" stroke="#B89253" stroke-width="1.5" stroke-dasharray="3,2" opacity="0.8"/>
  <text x="12" y="77" font-size="6" fill="#B89253" font-family="Arial">E</text>
  
  <!-- Linha Vertical Central -->
  <line x1="50" y1="10" x2="50" y2="90" stroke="#B89253" stroke-width="2" opacity="0.7"/>
  
  <!-- Linhas Verticais de Simetria -->
  <line x1="35" y1="25" x2="35" y2="75" stroke="#8B5E3C" stroke-width="1" stroke-dasharray="2,2" opacity="0.5"/>
  <line x1="65" y1="25" x2="65" y2="75" stroke="#8B5E3C" stroke-width="1" stroke-dasharray="2,2" opacity="0.5"/>
  
  <!-- Olhos (simplificados) -->
  <ellipse cx="38" cy="42" rx="4" ry="3" fill="#5C3B1D" opacity="0.4"/>
  <ellipse cx="62" cy="42" rx="4" ry="3" fill="#5C3B1D" opacity="0.4"/>
  
  <!-- Sobrancelhas -->
  <path d="M 33 38 Q 38 36 43 37" stroke="#8B5E3C" stroke-width="1.5"/>
  <path d="M 67 38 Q 62 36 57 37" stroke="#8B5E3C" stroke-width="1.5"/>
  
  <!-- Nariz (simplificado) -->
  <path d="M 50 38 L 50 54" stroke="#8B5E3C" stroke-width="1.5"/>
  <path d="M 47 54 Q 50 56 53 54" stroke="#8B5E3C" stroke-width="1.5"/>
  
  <!-- Boca -->
  <path d="M 43 65 Q 50 67 57 65" stroke="#8B5E3C" stroke-width="2"/>
  <path d="M 43 65 Q 50 63 57 65" stroke="#8B5E3C" stroke-width="1.2" opacity="0.6"/>
  
  <!-- Indicadores de Medição Lateral -->
  <!-- Esquerda -->
  <line x1="10" y1="28" x2="10" y2="42" stroke="#B89253" stroke-width="1.5"/>
  <line x1="8" y1="28" x2="12" y2="28" stroke="#B89253" stroke-width="1.5"/>
  <line x1="8" y1="42" x2="12" y2="42" stroke="#B89253" stroke-width="1.5"/>
  
  <line x1="10" y1="42" x2="10" y2="56" stroke="#B89253" stroke-width="1.5"/>
  <line x1="8" y1="56" x2="12" y2="56" stroke="#B89253" stroke-width="1.5"/>
  
  <line x1="10" y1="56" x2="10" y2="65" stroke="#B89253" stroke-width="1.5"/>
  <line x1="8" y1="65" x2="12" y2="65" stroke="#B89253" stroke-width="1.5"/>
  
  <!-- Direita -->
  <line x1="90" y1="28" x2="90" y2="42" stroke="#B89253" stroke-width="1.5"/>
  <line x1="88" y1="28" x2="92" y2="28" stroke="#B89253" stroke-width="1.5"/>
  <line x1="88" y1="42" x2="92" y2="42" stroke="#B89253" stroke-width="1.5"/>
  
  <line x1="90" y1="42" x2="90" y2="56" stroke="#B89253" stroke-width="1.5"/>
  <line x1="88" y1="56" x2="92" y2="56" stroke="#B89253" stroke-width="1.5"/>
  
  <line x1="90" y1="56" x2="90" y2="65" stroke="#B89253" stroke-width="1.5"/>
  <line x1="88" y1="65" x2="92" y2="65" stroke="#B89253" stroke-width="1.5"/>
  
  <!-- Pontos de Referência -->
  <circle cx="50" cy="28" r="1.5" fill="#B89253"/>
  <circle cx="50" cy="42" r="1.5" fill="#B89253"/>
  <circle cx="50" cy="56" r="1.5" fill="#B89253"/>
  <circle cx="50" cy="65" r="1.5" fill="#B89253"/>
  <circle cx="50" cy="78" r="1.5" fill="#B89253"/>
  
  <!-- Ângulos de Contorno (cantos) -->
  <circle cx="28" cy="25" r="2" fill="none" stroke="#B89253" stroke-width="1.5" opacity="0.6"/>
  <circle cx="72" cy="25" r="2" fill="none" stroke="#B89253" stroke-width="1.5" opacity="0.6"/>
  <circle cx="28" cy="73" r="2" fill="none" stroke="#B89253" stroke-width="1.5" opacity="0.6"/>
  <circle cx="72" cy="73" r="2" fill="none" stroke="#B89253" stroke-width="1.5" opacity="0.6"/>
</svg>